<svg width="17" height="16" viewBox="0 0 17 16" fill="none" xmlns="http://www.w3.org/2000/svg">
<g clip-path="url(#clip0_13640_3195)">
<path d="M6.81579 14.3158C9.37377 14.3158 11.4474 12.2422 11.4474 9.6842C11.4474 7.12622 9.37377 5.05262 6.81579 5.05262C4.25781 5.05262 2.18421 7.12622 2.18421 9.6842C2.18421 12.2422 4.25781 14.3158 6.81579 14.3158ZM6.81579 16C3.32779 16 0.5 13.1722 0.5 9.6842C0.5 6.1962 3.32779 3.36841 6.81579 3.36841C10.3038 3.36841 13.1316 6.1962 13.1316 9.6842C13.1316 13.1722 10.3038 16 6.81579 16Z" fill="#FBCC5C"/>
<path d="M10.1842 10.9474C12.7422 10.9474 14.8158 8.87377 14.8158 6.31579C14.8158 3.75781 12.7422 1.68421 10.1842 1.68421C7.62622 1.68421 5.55262 3.75781 5.55262 6.31579C5.55262 8.87377 7.62622 10.9474 10.1842 10.9474ZM10.1842 12.6316C6.6962 12.6316 3.86841 9.80379 3.86841 6.31579C3.86841 2.82779 6.6962 0 10.1842 0C13.6722 0 16.5 2.82779 16.5 6.31579C16.5 9.80379 13.6722 12.6316 10.1842 12.6316Z" fill="#35D07F"/>
<path d="M10.3929 12.6316C10.8308 12.1009 11.1447 11.4791 11.3116 10.8116C11.9791 10.6447 12.6009 10.3309 13.1316 9.89304C13.1074 10.666 12.9409 11.428 12.6405 12.1406C11.9278 12.441 11.1659 12.6074 10.3929 12.6316ZM5.68837 5.18837C5.02089 5.35525 4.39911 5.66907 3.86841 6.10693C3.89261 5.33393 4.05909 4.572 4.35952 3.85936C5.07218 3.55898 5.83411 3.39255 6.6071 3.36841C6.16919 3.8991 5.85531 4.52088 5.68837 5.18837Z" fill="#5EA33B"/>
</g>
<defs>
<clipPath id="clip0_13640_3195">
<rect width="16" height="16" fill="white" transform="translate(0.5)"/>
</clipPath>
</defs>
</svg>
