<svg width="38" height="21" viewBox="0 0 38 21" fill="none" xmlns="http://www.w3.org/2000/svg">
<rect x="0.5" y="1" width="37" height="19" rx="9.5" fill="#7A55FF"/>
<path d="M11.76 14.5H13.968V6.1H12.132V10.252L12.144 11.692H12.12L8.94 6.1H6.66V14.5H8.496V10.276L8.484 8.836H8.508L11.76 14.5ZM18.441 14.716C20.109 14.716 21.249 13.804 21.537 12.472H19.713C19.545 13.012 19.113 13.36 18.477 13.36C17.637 13.36 17.085 12.724 17.049 11.68H21.645V10.996C21.645 8.776 20.277 7.684 18.429 7.684C16.521 7.684 15.153 8.944 15.153 11.2C15.153 13.444 16.485 14.716 18.441 14.716ZM17.061 10.468C17.109 9.664 17.565 9.04 18.489 9.04C19.389 9.04 19.857 9.64 19.857 10.468H17.061ZM23.9153 14.5H25.8233L26.7473 10.612H26.7713L27.6953 14.5H29.5673L31.4633 7.9H29.6033L28.5953 12.172H28.5713L27.6713 7.9H25.8833L24.9833 12.172H24.9593L23.9513 7.9H22.0913L23.9153 14.5Z" fill="white"/>
<rect x="0.5" y="1" width="37" height="19" rx="9.5" stroke="#3B3C3F"/>
</svg>
