<svg width="253" height="39" viewBox="0 0 253 39" fill="none" xmlns="http://www.w3.org/2000/svg">
<rect width="253" height="39" rx="19.5" fill="#2D2F32"/>
<path d="M16.438 24.21C18.482 24.21 20.008 22.908 20.008 20.836C20.008 18.806 18.44 17.504 16.676 17.504C15.346 17.504 14.31 18.246 13.876 19.422H13.848V19.1C13.848 16.342 15.024 15.082 16.41 15.082C17.628 15.082 18.51 15.908 18.51 17.07H19.77C19.77 15.39 18.412 13.99 16.41 13.99C14.044 13.99 12.532 15.726 12.532 19.142C12.532 22.474 14.072 24.21 16.438 24.21ZM14.1 20.822C14.1 19.464 15.108 18.596 16.396 18.596C17.684 18.596 18.692 19.464 18.692 20.822C18.692 22.194 17.656 23.118 16.382 23.118C15.108 23.118 14.1 22.194 14.1 20.822ZM21.2859 23.258V24H28.1599V22.838H22.6439C22.6439 22.068 22.8819 21.536 24.6459 20.626L25.1919 20.346C27.3899 19.226 28.0199 18.092 28.0199 16.86C28.0199 15.11 26.7039 13.99 24.8279 13.99C22.9239 13.99 21.5799 15.166 21.5799 17.182H22.8819C22.8819 15.796 23.6659 15.082 24.8279 15.082C25.9479 15.082 26.6759 15.754 26.6759 16.902C26.6759 17.84 26.1579 18.484 24.7019 19.226L24.1839 19.492C21.8319 20.696 21.2859 21.704 21.2859 23.258ZM32.9589 24.21C35.0029 24.21 36.5849 22.852 36.5849 20.794C36.5849 18.792 35.0869 17.504 33.3229 17.504C32.2169 17.504 31.3349 18.008 30.7889 18.792H30.7609L31.3909 15.32H35.9969V14.2H30.2849L29.4869 19.73H30.7329C31.1669 19.072 31.9229 18.596 32.9449 18.596C34.2609 18.596 35.2689 19.464 35.2689 20.822C35.2689 22.166 34.3029 23.118 32.9589 23.118C31.7549 23.118 30.8169 22.348 30.6909 21.256H29.4309C29.6269 23.02 31.0409 24.21 32.9589 24.21ZM37.8262 24H39.1562V22.6H37.8262V24ZM44.0928 24.21C46.5288 24.21 47.9008 22.362 47.9008 19.1C47.9008 15.838 46.5288 13.99 44.0928 13.99C41.6568 13.99 40.2848 15.838 40.2848 19.1C40.2848 22.362 41.6568 24.21 44.0928 24.21ZM41.6008 19.1C41.6008 16.426 42.5248 15.082 44.0928 15.082C45.6608 15.082 46.5848 16.426 46.5848 19.1C46.5848 21.746 45.6608 23.118 44.0928 23.118C42.5248 23.118 41.6008 21.746 41.6008 19.1ZM53.4373 24.21C55.8733 24.21 57.2453 22.362 57.2453 19.1C57.2453 15.838 55.8733 13.99 53.4373 13.99C51.0013 13.99 49.6293 15.838 49.6293 19.1C49.6293 22.362 51.0013 24.21 53.4373 24.21ZM50.9453 19.1C50.9453 16.426 51.8693 15.082 53.4373 15.082C55.0053 15.082 55.9293 16.426 55.9293 19.1C55.9293 21.746 55.0053 23.118 53.4373 23.118C51.8693 23.118 50.9453 21.746 50.9453 19.1Z" fill="white"/>
<path d="M67.242 24.21C69.356 24.21 70.588 22.796 70.798 21.214H69.482C69.356 22.068 68.6 23.118 67.242 23.118C65.828 23.118 64.736 21.984 64.736 20.15C64.736 18.414 65.688 17.182 67.242 17.182C68.614 17.182 69.398 18.134 69.482 19.24H70.798C70.63 17.504 69.426 16.09 67.242 16.09C64.848 16.09 63.42 17.686 63.42 20.15C63.42 22.614 64.96 24.21 67.242 24.21ZM76.3431 24.21C78.5271 24.21 80.2071 22.796 80.2071 20.234V14.2H78.9051V20.206C78.9051 22.082 77.7571 23.048 76.3431 23.048C74.9291 23.048 73.7811 22.082 73.7811 20.206V14.2H72.4791V20.234C72.4791 22.796 74.1591 24.21 76.3431 24.21ZM86.0608 24.21C88.4128 24.21 89.8828 22.978 89.8828 21.032C89.8828 19.688 89.1828 18.316 86.6488 18.316H85.3748C83.9608 18.316 83.5408 17.714 83.5408 16.958C83.5408 15.838 84.4648 15.152 85.9488 15.152C87.5448 15.152 88.3428 15.936 88.4268 17.392H89.7428C89.6448 15.404 88.4548 13.99 85.9768 13.99C83.6668 13.99 82.2248 15.208 82.2248 16.986C82.2248 18.47 83.2188 19.576 85.3188 19.576H86.5928C88.2168 19.576 88.5668 20.318 88.5668 21.06C88.5668 22.264 87.6428 23.048 86.0888 23.048C84.4228 23.048 83.4848 22.166 83.4008 20.612H82.0848C82.1828 22.81 83.5268 24.21 86.0608 24.21ZM91.7969 24H95.4089C98.1529 24 100.197 22.236 100.197 19.1C100.197 15.964 98.1529 14.2 95.4089 14.2H91.7969V24ZM93.0989 22.838V15.362H95.4089C97.3409 15.362 98.8389 16.608 98.8389 19.1C98.8389 21.564 97.3409 22.838 95.4089 22.838H93.0989Z" fill="#71767B"/>
<rect x="111" y="4" width="138" height="31" rx="15.5" fill="#131415"/>
<g clip-path="url(#clip0_13699_2925)">
<path d="M129.316 25.8158C131.874 25.8158 133.947 23.7422 133.947 21.1842C133.947 18.6262 131.874 16.5526 129.316 16.5526C126.758 16.5526 124.684 18.6262 124.684 21.1842C124.684 23.7422 126.758 25.8158 129.316 25.8158ZM129.316 27.5C125.828 27.5 123 24.6722 123 21.1842C123 17.6962 125.828 14.8684 129.316 14.8684C132.804 14.8684 135.632 17.6962 135.632 21.1842C135.632 24.6722 132.804 27.5 129.316 27.5Z" fill="#FBCC5C"/>
<path d="M132.684 22.4474C135.242 22.4474 137.316 20.3738 137.316 17.8158C137.316 15.2578 135.242 13.1842 132.684 13.1842C130.126 13.1842 128.053 15.2578 128.053 17.8158C128.053 20.3738 130.126 22.4474 132.684 22.4474ZM132.684 24.1316C129.196 24.1316 126.369 21.3038 126.369 17.8158C126.369 14.3278 129.196 11.5 132.684 11.5C136.172 11.5 139 14.3278 139 17.8158C139 21.3038 136.172 24.1316 132.684 24.1316Z" fill="#35D07F"/>
<path d="M132.893 24.1316C133.331 23.6009 133.645 22.9791 133.812 22.3116C134.479 22.1447 135.101 21.8309 135.632 21.393C135.608 22.166 135.441 22.928 135.141 23.6406C134.428 23.941 133.666 24.1074 132.893 24.1316ZM128.189 16.6884C127.521 16.8552 126.899 17.1691 126.369 17.6069C126.393 16.8339 126.559 16.072 126.86 15.3594C127.572 15.059 128.334 14.8925 129.107 14.8684C128.669 15.3991 128.356 16.0209 128.189 16.6884V16.6884Z" fill="#5EA33B"/>
</g>
<path d="M151.34 24.238C153.804 24.238 155.204 22.39 155.204 19.1C155.204 15.81 153.804 13.962 151.34 13.962C148.862 13.962 147.462 15.81 147.462 19.1C147.462 22.39 148.862 24.238 151.34 24.238ZM149.338 19.1C149.338 16.566 150.038 15.362 151.34 15.362C152.642 15.362 153.328 16.566 153.328 19.1C153.328 21.62 152.642 22.838 151.34 22.838C150.038 22.838 149.338 21.62 149.338 19.1ZM157.608 23.034L159.638 21.004L161.668 23.034L162.677 22.026L160.647 19.996L162.677 17.966L161.668 16.958L159.638 18.988L157.608 16.958L156.6 17.966L158.63 19.996L156.6 22.026L157.608 23.034ZM168.39 24.238C170.462 24.238 172.016 22.922 172.016 20.836C172.016 18.806 170.518 17.504 168.824 17.504C167.648 17.504 166.752 18.12 166.332 19.1H166.304V18.778C166.304 16.37 167.228 15.362 168.32 15.362C169.3 15.362 169.93 16.076 169.93 17.07H171.778C171.778 15.376 170.392 13.962 168.362 13.962C165.968 13.962 164.428 15.712 164.428 19.142C164.428 22.488 165.996 24.238 168.39 24.238ZM166.542 20.822C166.542 19.604 167.298 18.876 168.334 18.876C169.37 18.876 170.126 19.604 170.126 20.822C170.126 22.054 169.342 22.838 168.32 22.838C167.298 22.838 166.542 22.054 166.542 20.822ZM174.026 24H175.902C175.902 21.172 177.05 17.588 179.472 15.544V14.2H172.822V15.642H177.932V15.67C175.594 17.392 174.026 21.074 174.026 24ZM183.969 24.238C186.139 24.238 187.637 23.188 187.637 21.34C187.637 20.024 186.839 19.072 185.425 18.806V18.778C186.559 18.526 187.287 17.77 187.287 16.566C187.287 14.886 185.831 13.962 183.969 13.962C182.093 13.962 180.637 14.886 180.637 16.566C180.637 17.77 181.365 18.526 182.499 18.778V18.806C181.085 19.072 180.287 20.024 180.287 21.34C180.287 23.188 181.785 24.238 183.969 24.238ZM182.163 21.158C182.163 20.01 182.919 19.464 183.969 19.464C185.005 19.464 185.761 20.01 185.761 21.158C185.761 22.292 185.005 22.838 183.969 22.838C182.919 22.838 182.163 22.292 182.163 21.158ZM182.471 16.748C182.471 15.852 183.087 15.362 183.969 15.362C184.837 15.362 185.467 15.852 185.467 16.748C185.467 17.658 184.837 18.134 183.969 18.134C183.087 18.134 182.471 17.658 182.471 16.748ZM188.956 24H190.846V22.124H188.956V24ZM192.531 24H194.421V22.124H192.531V24ZM196.106 24H197.996V22.124H196.106V24ZM203.879 24H205.643V21.97H206.903V20.528H205.643V14.2H203.361L199.203 20.64V21.97H203.879V24ZM200.981 20.528V20.5L203.851 15.964H203.879V20.528H200.981ZM211.913 24.238C213.985 24.238 215.539 22.922 215.539 20.836C215.539 18.806 214.041 17.504 212.347 17.504C211.171 17.504 210.275 18.12 209.855 19.1H209.827V18.778C209.827 16.37 210.751 15.362 211.843 15.362C212.823 15.362 213.453 16.076 213.453 17.07H215.301C215.301 15.376 213.915 13.962 211.885 13.962C209.491 13.962 207.951 15.712 207.951 19.142C207.951 22.488 209.519 24.238 211.913 24.238ZM210.065 20.822C210.065 19.604 210.821 18.876 211.857 18.876C212.893 18.876 213.649 19.604 213.649 20.822C213.649 22.054 212.865 22.838 211.843 22.838C210.821 22.838 210.065 22.054 210.065 20.822ZM220.374 13.962C218.302 13.962 216.748 15.278 216.748 17.364C216.748 19.394 218.246 20.696 219.94 20.696C221.116 20.696 222.012 20.08 222.432 19.1H222.46V19.422C222.46 21.83 221.536 22.838 220.444 22.838C219.464 22.838 218.834 22.124 218.834 21.13H216.986C216.986 22.824 218.372 24.238 220.402 24.238C222.796 24.238 224.336 22.488 224.336 19.058C224.336 15.712 222.768 13.962 220.374 13.962ZM218.638 17.378C218.638 16.146 219.422 15.362 220.444 15.362C221.466 15.362 222.222 16.146 222.222 17.378C222.222 18.596 221.466 19.324 220.43 19.324C219.394 19.324 218.638 18.596 218.638 17.378ZM224.608 26.8H225.742C226.876 26.8 227.702 25.946 227.702 24.826V16.3H225.924V24.504C225.924 25.064 225.644 25.386 225.14 25.386H224.608V26.8ZM225.91 15.082H227.716V13.374H225.91V15.082ZM231.399 26.8H234.101C235.711 26.8 236.649 25.932 236.649 24.574C236.649 23.216 235.711 22.362 234.101 22.362H231.735C231.287 22.362 231.049 22.18 231.049 21.858C231.049 21.508 231.315 21.368 231.735 21.368H232.617C234.353 21.368 235.711 20.36 235.711 18.708C235.711 18.47 235.683 18.246 235.627 18.036C235.655 17.826 235.767 17.742 236.019 17.742H236.565V16.3H236.215C235.641 16.3 235.291 16.65 235.263 17.238H235.235C234.675 16.496 233.681 16.062 232.561 16.062C230.853 16.062 229.411 17.014 229.411 18.708C229.411 19.758 229.957 20.542 230.839 20.906V20.934L230.657 20.962C230.013 21.046 229.509 21.522 229.509 22.25C229.509 22.88 229.873 23.342 230.433 23.566V23.594C229.565 23.79 229.131 24.392 229.131 25.134C229.131 26.086 229.859 26.8 231.399 26.8ZM230.629 24.658C230.629 24.112 230.993 23.762 231.707 23.762H233.835C234.521 23.762 234.913 24.084 234.913 24.658C234.913 25.218 234.521 25.554 233.835 25.554H231.707C230.965 25.554 230.629 25.19 230.629 24.658ZM231.091 18.792C231.091 17.882 231.763 17.462 232.561 17.462C233.359 17.462 234.031 17.882 234.031 18.792C234.031 19.702 233.359 20.122 232.561 20.122C231.763 20.122 231.091 19.702 231.091 18.792Z" fill="white"/>
<defs>
<clipPath id="clip0_13699_2925">
<rect width="16" height="16" fill="white" transform="translate(123 11.5)"/>
</clipPath>
</defs>
</svg>
