<svg width="151" height="32" viewBox="0 0 151 32" fill="none" xmlns="http://www.w3.org/2000/svg">
<rect width="151" height="32" rx="16" fill="#2D2F32"/>
<path d="M21.892 21.252C24.09 21.252 25.574 19.978 25.574 17.528V11.2H23.39V17.458C23.39 18.858 22.858 19.558 21.892 19.558C20.926 19.558 20.394 18.858 20.394 17.458H18.21C18.21 19.964 19.708 21.252 21.892 21.252ZM31.8998 19.67H31.9278V19.852C31.9278 20.594 32.4038 21 33.3138 21H34.7418V19.362H34.4758C34.0838 19.362 33.9438 19.222 33.9438 18.83V15.764C33.9438 14.182 33.0058 13.048 30.5138 13.048C28.0918 13.048 27.0138 14.126 26.9018 15.792H29.1138C29.1418 15.064 29.6598 14.63 30.5838 14.63C31.2978 14.63 31.8578 14.91 31.8578 15.54C31.8578 16.016 31.5358 16.31 30.7938 16.31H29.5338C28.0078 16.31 26.6078 17.01 26.6078 18.774C26.6078 20.398 27.7698 21.252 29.2818 21.252C30.4298 21.252 31.4238 20.748 31.8998 19.67ZM28.8338 18.662C28.8338 18.116 29.2118 17.766 29.9678 17.724L30.4858 17.682C31.2138 17.626 31.6198 17.416 31.8298 16.982H31.8578V17.612C31.8578 19.068 30.9198 19.614 29.9958 19.614C29.1838 19.614 28.8338 19.194 28.8338 18.662ZM35.6268 21H37.7128V16.45C37.7128 15.12 38.4548 14.644 39.1968 14.644C39.9948 14.644 40.4988 15.162 40.4988 16.296V21H42.5848V16.044C42.5848 14.056 41.4928 13.048 39.9668 13.048C38.9868 13.048 38.1888 13.482 37.7128 14.322H37.6848V13.3H35.6268V21ZM47.465 21.252C49.411 21.252 50.741 20.188 51.077 18.634H48.949C48.753 19.264 48.249 19.67 47.507 19.67C46.527 19.67 45.883 18.928 45.841 17.71H51.203V16.912C51.203 14.322 49.607 13.048 47.451 13.048C45.225 13.048 43.629 14.518 43.629 17.15C43.629 19.768 45.183 21.252 47.465 21.252ZM45.855 16.296C45.911 15.358 46.443 14.63 47.521 14.63C48.571 14.63 49.117 15.33 49.117 16.296H45.855ZM59.5635 21.252C62.3775 21.252 63.9035 19.446 64.1695 17.374H61.8735C61.7615 18.494 61.0475 19.558 59.5635 19.558C58.0375 19.558 57.0015 18.396 57.0015 16.086C57.0015 13.776 57.9675 12.642 59.5635 12.642C61.0755 12.642 61.7755 13.678 61.8735 14.896H64.1695C63.9735 12.726 62.4195 10.948 59.5635 10.948C56.4975 10.948 54.6635 12.936 54.6635 16.086C54.6635 19.236 56.6375 21.252 59.5635 21.252ZM68.8231 21.252C71.0211 21.252 72.7711 19.81 72.7711 17.15C72.7711 14.49 71.0211 13.048 68.8231 13.048C66.6251 13.048 64.8751 14.49 64.8751 17.15C64.8751 19.81 66.6251 21.252 68.8231 21.252ZM67.1011 17.15C67.1011 15.498 67.7311 14.63 68.8231 14.63C69.9151 14.63 70.5451 15.498 70.5451 17.15C70.5451 18.802 69.9151 19.67 68.8231 19.67C67.7311 19.67 67.1011 18.802 67.1011 17.15ZM73.8397 23.8H75.9257V20.664C75.9257 20.37 75.9257 20.118 75.8977 19.838H75.9257C76.3737 20.72 77.2277 21.252 78.3197 21.252C80.0977 21.252 81.6377 19.838 81.6377 17.15C81.6377 14.462 80.0977 13.048 78.3197 13.048C77.2277 13.048 76.3737 13.58 75.9257 14.462H75.8977C75.9257 14.196 75.9257 13.972 75.9257 13.72V13.3H73.8397V23.8ZM75.9117 17.15C75.9117 15.61 76.5137 14.63 77.6617 14.63C78.7957 14.63 79.4117 15.61 79.4117 17.15C79.4117 18.69 78.7957 19.67 77.6617 19.67C76.5137 19.67 75.9117 18.69 75.9117 17.15ZM82.699 23.8H84.785V20.664C84.785 20.37 84.785 20.118 84.757 19.838H84.785C85.233 20.72 86.087 21.252 87.179 21.252C88.957 21.252 90.497 19.838 90.497 17.15C90.497 14.462 88.957 13.048 87.179 13.048C86.087 13.048 85.233 13.58 84.785 14.462H84.757C84.785 14.196 84.785 13.972 84.785 13.72V13.3H82.699V23.8ZM84.771 17.15C84.771 15.61 85.373 14.63 86.521 14.63C87.655 14.63 88.271 15.61 88.271 17.15C88.271 18.69 87.655 19.67 86.521 19.67C85.373 19.67 84.771 18.69 84.771 17.15ZM95.0841 21.252C97.0301 21.252 98.3601 20.188 98.6961 18.634H96.5681C96.3721 19.264 95.8681 19.67 95.1261 19.67C94.1461 19.67 93.5021 18.928 93.4601 17.71H98.8221V16.912C98.8221 14.322 97.2261 13.048 95.0701 13.048C92.8441 13.048 91.2481 14.518 91.2481 17.15C91.2481 19.768 92.8021 21.252 95.0841 21.252ZM93.4741 16.296C93.5301 15.358 94.0621 14.63 95.1401 14.63C96.1901 14.63 96.7361 15.33 96.7361 16.296H93.4741ZM99.8436 21H101.93V16.506C101.93 15.386 102.364 14.938 103.302 14.938H104.478V13.3H103.722C102.826 13.3 102.308 13.678 101.93 14.434H101.902V13.3H99.8436V21Z" fill="white"/>
<path d="M124.567 8.75C124.759 8.41667 125.241 8.41667 125.433 8.75L128.031 13.25C128.224 13.5833 127.983 14 127.598 14H122.402C122.017 14 121.776 13.5833 121.969 13.25L124.567 8.75Z" fill="#536471"/>
<path d="M125.433 23.25C125.241 23.5833 124.759 23.5833 124.567 23.25L121.969 18.75C121.776 18.4167 122.017 18 122.402 18L127.598 18C127.983 18 128.224 18.4167 128.031 18.75L125.433 23.25Z" fill="#536471"/>
</svg>
