<svg width="103" height="32" viewBox="0 0 103 32" fill="none" xmlns="http://www.w3.org/2000/svg">
<rect width="103" height="32" rx="16" fill="#2D2F32"/>
<path d="M18.77 21H20.954V17.444H23.334C25.294 17.444 26.708 16.324 26.708 14.336C26.708 12.334 25.294 11.2 23.334 11.2H18.77V21ZM20.954 15.75V12.894H22.788C23.824 12.894 24.454 13.468 24.454 14.336C24.454 15.204 23.824 15.75 22.788 15.75H20.954ZM31.1408 21.252C33.0868 21.252 34.4168 20.188 34.7528 18.634H32.6248C32.4288 19.264 31.9248 19.67 31.1828 19.67C30.2028 19.67 29.5588 18.928 29.5168 17.71H34.8787V16.912C34.8787 14.322 33.2828 13.048 31.1268 13.048C28.9008 13.048 27.3048 14.518 27.3048 17.15C27.3048 19.768 28.8588 21.252 31.1408 21.252ZM29.5308 16.296C29.5868 15.358 30.1188 14.63 31.1968 14.63C32.2468 14.63 32.7928 15.33 32.7928 16.296H29.5308ZM35.9002 21H37.9862V16.506C37.9862 15.386 38.4202 14.938 39.3582 14.938H40.5342V13.3H39.7782C38.8822 13.3 38.3642 13.678 37.9862 14.434H37.9582V13.3H35.9002V21ZM41.2869 21H43.3729V18.928L44.3389 17.85H44.3669L46.2429 21H48.8189L45.7809 16.31L48.5109 13.3H46.0749L43.4009 16.422H43.3729V10.066H41.2869V21ZM52.3669 21.252C54.6629 21.252 55.8669 20.174 55.8669 18.606C55.8669 17.318 55.0689 16.282 53.1509 16.282H52.2269C51.5409 16.282 51.1629 16.016 51.1629 15.498C51.1629 14.952 51.5969 14.63 52.3529 14.63C53.1789 14.63 53.6129 15.036 53.6269 15.792H55.7269C55.6989 14.154 54.5229 13.048 52.3249 13.048C50.2389 13.048 48.9649 14.07 48.9649 15.582C48.9649 16.912 49.9029 17.794 51.5689 17.794H52.4089C53.2769 17.794 53.6409 18.144 53.6409 18.676C53.6409 19.278 53.2069 19.67 52.3529 19.67C51.5269 19.67 50.9949 19.306 50.9809 18.452H48.8249C48.8529 20.16 50.0569 21.252 52.3669 21.252Z" fill="white"/>
<path d="M76.567 8.75C76.7594 8.41667 77.2406 8.41667 77.433 8.75L80.0311 13.25C80.2235 13.5833 79.983 14 79.5981 14H74.4019C74.017 14 73.7765 13.5833 73.9689 13.25L76.567 8.75Z" fill="#536471"/>
<path d="M77.433 23.25C77.2406 23.5833 76.7594 23.5833 76.567 23.25L73.9689 18.75C73.7765 18.4167 74.017 18 74.4019 18L79.5981 18C79.983 18 80.2235 18.4167 80.0311 18.75L77.433 23.25Z" fill="#536471"/>
</svg>
