<svg width="16" height="20" viewBox="0 0 16 20" fill="none" xmlns="http://www.w3.org/2000/svg">
<path fill-rule="evenodd" clip-rule="evenodd" d="M3.72 0L0 0.769231V3.19527V6.86391L15.6 3.66864V0L4.68 2.24852C4.2 2.36686 3.72 2.01183 3.72 1.47929V0ZM3.72 12.1893C3.72 11.9527 3.9 11.7751 4.14 11.716L15.6 9.34911V5.68047L0 8.93491V12.1302V12.1893V12.2485C0.06 16.4497 3.54 19.8817 7.8 19.8817C12.06 19.8817 15.54 16.5089 15.6 12.2485V12.1893V11.3609L11.88 12.1302V12.1893C11.88 14.4379 10.08 16.213 7.8 16.213C5.52 16.213 3.72 14.4379 3.72 12.1893Z" fill="#7A55FF"/>
</svg>
